HIERARCHY
ROOT Hips
{
 OFFSET 0.000000 0.000000 0.000000
 CHANNELS 6 Xposition Yposition Zposition Yrotation Xrotation Zrotation
 JOINT Chest
 {
  OFFSET 0.000000 9.585900 0.002600
  CHANNELS 3 Yrotation Xrotation Zrotation
  JOINT Chest2
  {
   OFFSET 0.000000 9.601200 -0.005300
   CHANNELS 3 Yrotation Xrotation Zrotation
   JOINT Chest3
   {
    OFFSET 0.000000 9.561800 0.000000
    CHANNELS 3 Yrotation Xrotation Zrotation
    JOINT Chest4
    {
     OFFSET 0.000000 9.552100 0.000000
     CHANNELS 3 Yrotation Xrotation Zrotation
     JOINT Neck
     {
      OFFSET 0.000000 14.453000 0.000000
      CHANNELS 3 Yrotation Xrotation Zrotation
      JOINT Head
      {
       OFFSET 0.000000 8.936500 -0.011300
       CHANNELS 3 Yrotation Xrotation Zrotation
       End Site
       {
        OFFSET 0.000000 17.073600 -0.006000
       }
      }
     }
     JOINT RightCollar
     {
      OFFSET -2.921100 9.558500 0.000000
      CHANNELS 3 Yrotation Xrotation Zrotation
      JOINT RightShoulder
      {
       OFFSET -13.519700 0.000000 0.000000
       CHANNELS 3 Yrotation Xrotation Zrotation
       JOINT RightElbow
       {
        OFFSET 0.000000 -29.696600 0.000000
        CHANNELS 3 Yrotation Xrotation Zrotation
        JOINT RightWrist
        {
         OFFSET 0.000000 -24.004700 0.000000
         CHANNELS 3 Yrotation Xrotation Zrotation
         End Site
         {
          OFFSET 0.000000 -17.728500 0.000000
         }
        }
       }
      }
     }
     JOINT LeftCollar
     {
      OFFSET 2.921100 9.558500 0.000000
      CHANNELS 3 Yrotation Xrotation Zrotation
      JOINT LeftShoulder
      {
       OFFSET 13.519700 0.000000 0.000000
       CHANNELS 3 Yrotation Xrotation Zrotation
       JOINT LeftElbow
       {
        OFFSET 0.000000 -29.696600 0.000000
        CHANNELS 3 Yrotation Xrotation Zrotation
        JOINT LeftWrist
        {
         OFFSET 0.000000 -24.004700 0.000000
         CHANNELS 3 Yrotation Xrotation Zrotation
         End Site
         {
          OFFSET 0.000000 -17.728500 0.000000
         }
        }
       }
      }
     }
    }
   }
  }
 }
 JOINT RightHip
 {
  OFFSET -7.771700 -0.012900 -0.001300
  CHANNELS 3 Yrotation Xrotation Zrotation
  JOINT RightKnee
  {
   OFFSET 0.000000 -40.869800 0.001200
   CHANNELS 3 Yrotation Xrotation Zrotation
   JOINT RightAnkle
   {
    OFFSET 0.000000 -39.717900 0.002100
    CHANNELS 3 Yrotation Xrotation Zrotation
    JOINT RightToe
    {
     OFFSET 0.000000 -4.965400 11.033500
     CHANNELS 3 Yrotation Xrotation Zrotation
     End Site
     {
      OFFSET 0.000000 -1.423100 5.872300
     }
    }
   }
  }
 }
 JOINT LeftHip
 {
  OFFSET 7.771700 -0.012900 -0.001300
  CHANNELS 3 Yrotation Xrotation Zrotation
  JOINT LeftKnee
  {
   OFFSET 0.000000 -40.869800 0.001200
   CHANNELS 3 Yrotation Xrotation Zrotation
   JOINT LeftAnkle
   {
    OFFSET 0.000000 -39.717900 0.002100
    CHANNELS 3 Yrotation Xrotation Zrotation
    JOINT LeftToe
    {
     OFFSET 0.000000 -4.965400 11.033500
     CHANNELS 3 Yrotation Xrotation Zrotation
     End Site
     {
      OFFSET 0.000000 -1.423100 5.872300
     }
    }
   }
  }
 }
}
MOTION
Frames: 6
Frame Time: 0.008333
-3.740149 49.854669 27.920490 171.807383 -32.988111 -6.294960 5.955165 19.332008 7.079234 0.647977 2.533219 0.652080 1.026668 4.144774 1.082624 4.698687 16.644879 4.955172 -1.648368 15.687456 0.533149 -3.264362 -6.630148 1.589964 2.034661 -3.313551 -7.037490 4.668068 -10.954088 -0.814558 66.098480 -75.237631 -72.685815 8.607660 10.123598 20.566894 -10.079337 -1.992973 -1.067943 6.036245 -7.483549 -0.068277 -113.669524 -67.946147 110.656329 4.423774 5.228661 -18.028650 -0.879699 -46.872643 10.442628 -128.919087 82.985405 -116.554910 0.192547 -15.432357 -4.909585 -0.104027 0.908531 -0.074133 -8.551530 -51.233493 17.324184 -159.361091 81.502941 -166.451554 0.672921 -15.114088 6.884217 -0.062250 -0.157494 0.055658
-3.733346 49.855348 27.923587 171.779280 -32.966045 -6.283938 5.915591 19.318346 7.061456 0.671390 2.532757 0.650916 1.021134 4.142319 1.080593 4.624997 16.631852 4.935602 -1.607971 15.691234 0.521265 -3.184746 -6.624695 1.553200 2.095836 -3.401791 -7.132098 4.733529 -10.879540 -0.853782 65.970650 -75.594026 -72.414436 8.843086 10.239834 20.916176 -10.109782 -2.025895 -1.068249 6.237388 -7.375604 0.017301 -114.606238 -68.248272 111.399264 4.288635 5.777720 -18.672726 -0.879260 -46.898731 10.452079 -128.997276 83.014381 -116.617869 0.186857 -15.428097 -4.934498 -0.105385 0.916426 -0.072155 -8.537901 -51.248837 17.375793 -159.096592 81.496431 -166.228906 0.663547 -15.118536 6.916870 -0.066252 -0.151310 0.042782
-3.730239 49.855303 27.927273 171.751089 -32.944062 -6.257010 5.870151 19.300996 7.025319 0.668059 2.533988 0.650366 1.011251 4.135895 1.075847 4.581420 16.616327 4.912740 -1.568179 15.693600 0.508087 -3.105872 -6.621821 1.514270 2.153157 -3.482183 -7.216569 4.788226 -10.808649 -0.907618 65.859281 -75.964097 -72.149551 9.045597 10.372203 21.327798 -10.127469 -2.060887 -1.071747 6.479732 -7.278562 0.091139 -115.619739 -68.578427 112.177861 4.097284 6.496514 -19.535983 -0.870241 -46.925186 10.440529 -129.097457 83.044735 -116.708363 0.181770 -15.426401 -4.961634 -0.109535 0.925789 -0.069986 -8.503027 -51.265590 17.371142 -159.005358 81.504097 -166.160597 0.669202 -15.128953 6.934621 -0.081171 -0.139063 0.038105
-3.731007 49.854599 27.931382 171.732836 -32.921399 -6.218133 5.808618 19.281876 6.968800 0.612417 2.522966 0.644040 0.992399 4.117826 1.065873 4.599401 16.620236 4.896378 -1.530427 15.696153 0.493722 -3.030322 -6.608269 1.479210 2.211183 -3.555176 -7.295234 4.835673 -10.738564 -0.973390 65.790433 -76.338717 -71.919823 9.223701 10.522499 21.800432 -10.129719 -2.094113 -1.078436 6.759078 -7.202228 0.152277 -116.709133 -68.934478 112.996212 3.828001 7.402307 -20.638089 -0.859062 -46.950285 10.406164 -129.149066 83.063336 -116.755387 0.183779 -15.428377 -4.985924 -0.107736 0.936522 -0.072438 -8.450330 -51.279024 17.347324 -158.820189 81.520317 -166.025029 0.695533 -15.143809 6.981369 -0.129029 -0.117135 0.002321
-3.731649 49.853701 27.936630 171.721478 -32.897643 -6.189223 5.742649 19.258177 6.916682 0.656000 2.528998 0.647156 0.912777 4.087028 1.053721 4.581731 16.612217 4.878408 -1.495538 15.700995 0.480701 -2.960051 -6.570859 1.457116 2.268983 -3.619110 -7.369229 4.878281 -10.665225 -1.051010 65.806739 -76.726043 -71.773381 9.409706 10.695491 22.335037 -10.124383 -2.118871 -1.081700 7.057395 -7.150767 0.198370 -117.862166 -69.299107 113.870366 3.462565 8.481605 -22.001123 -0.869515 -46.976623 10.387289 -129.205187 83.079413 -116.815866 0.189564 -15.425863 -5.006670 -0.106240 0.944049 -0.071600 -8.409463 -51.299356 17.361765 -158.699006 81.528674 -165.970384 0.676970 -15.141476 7.047204 -0.167126 -0.113013 -0.010192
-3.730458 49.852981 27.943179 171.683528 -32.875287 -6.161271 5.736370 19.231816 6.892862 0.618712 2.516749 0.642372 0.923437 4.081396 1.048873 4.530264 16.587251 4.855127 -1.462875 15.709538 0.471488 -2.893784 -6.562652 1.422012 2.321821 -3.673441 -7.438024 4.921747 -10.585192 -1.142239 65.978516 -77.126424 -71.789505 9.634150 10.889736 22.941510 -10.113681 -2.138685 -1.075837 7.350053 -7.120843 0.226839 -119.038523 -69.640598 114.793507 2.980891 9.692555 -23.646865 -0.884836 -47.006144 10.399330 -129.208242 83.079371 -116.832224 0.213853 -15.422205 -5.021633 -0.111669 0.951732 -0.075547 -8.362251 -51.323705 17.396931 -158.646443 81.527740 -165.959377 0.619559 -15.137352 7.092578 -0.166875 -0.112653 -0.013964
